<svg width="60" height="58" viewBox="0 0 60 58" fill="none" xmlns="http://www.w3.org/2000/svg">
<g id="cup/8oz/b">
<path id="Fill 1" fill-rule="evenodd" clip-rule="evenodd" d="M51.9363 35.3707C49.9704 38.7995 46.4871 42.2083 42.1646 44.9294L45.764 25.1674C49.0051 25.0179 51.5748 25.802 52.795 27.6128C54.0282 29.4268 53.7183 32.2476 51.9363 35.3707ZM46.5743 21.8715C46.7131 20.6688 46.8422 20.3 46.8713 20.1106C47.0037 19.1936 46.9294 18.6421 46.6195 18.2567C46.145 17.6919 45.1378 17.5523 43.6463 17.4061C37.6871 16.8679 19.8352 16.8912 16.5263 17.3198C15.4255 17.4826 14.6991 17.7982 14.3085 18.2833C13.8921 18.8514 13.9922 19.4893 14.0696 19.9013L14.0955 20.0541C14.2795 21.33 15.1446 26.9283 16.1551 34.0882C17.5916 44.4444 19.2186 54.3453 19.3865 55.2822C19.6899 56.9933 21.4428 57.3089 22.86 57.5714L23.2668 57.6279C24.5193 57.8671 26.9275 58 29.4875 58C32.8416 58 36.4346 57.7807 37.9421 57.3521C39.7596 56.8305 39.9468 55.7407 40.0856 54.9467C40.0986 54.8171 41.6352 49.1988 41.6352 49.1988C42.4874 48.7303 43.0782 48.2951 43.9175 47.7735C48.7727 44.7334 52.7014 40.896 54.9611 36.9422C57.4081 32.6662 57.6567 28.7025 55.6843 25.7954C53.9184 23.1906 50.616 21.8948 46.5743 21.8715Z" fill="#5B3427"/>
</g>
</svg>
