<svg width="22" height="22" viewBox="0 0 22 22" fill="none" xmlns="http://www.w3.org/2000/svg">
<circle cx="11" cy="11" r="10.5" fill="#FAF5F0" stroke="#5B3427"/>
<path d="M12.184 9.248V17H10.096V9.248H12.184ZM10.184 5.76C10.44 5.49867 10.7547 5.368 11.128 5.368C11.5013 5.368 11.816 5.49867 12.072 5.76C12.3333 6.016 12.464 6.33333 12.464 6.712C12.464 7.08533 12.336 7.4 12.08 7.656C11.824 7.912 11.5067 8.04 11.128 8.04C10.7547 8.04 10.44 7.912 10.184 7.656C9.928 7.4 9.8 7.08533 9.8 6.712C9.8 6.33333 9.928 6.016 10.184 5.76Z" fill="#5B3427"/>
</svg>
