<svg width="300" height="300" viewBox="0 0 300 300" fill="none" xmlns="http://www.w3.org/2000/svg">
<rect width="300" height="300" fill="#F8E71C"/>
<path fill-rule="evenodd" clip-rule="evenodd" d="M152.5 77.1019C155.425 79.9639 157.707 83.1423 159.429 86.6896C166.339 100.922 167.165 115.607 162.494 130.65C161.896 132.573 161.036 134.415 160.371 136.111C160.069 135.747 159.778 135.381 159.492 135.016C159.47 134.988 159.448 134.961 159.426 134.934C155.893 130.499 149.066 130.497 145.538 134.936C145.52 134.959 145.502 134.981 145.484 135.004C145.194 135.373 144.9 135.743 144.595 136.111C143.93 134.415 143.069 132.573 142.472 130.65C137.802 115.607 138.627 100.922 145.537 86.6896C147.259 83.1423 149.541 79.9639 152.466 77.1019H152.5Z" fill="white"/>
<path fill-rule="evenodd" clip-rule="evenodd" d="M224.683 125.872C223.074 129.637 220.938 132.916 218.256 135.805C207.498 147.396 194.12 153.472 178.424 154.543C176.417 154.681 174.39 154.543 172.571 154.533C172.801 154.12 173.037 153.716 173.273 153.317L173.326 153.226C176.18 148.326 173.716 141.95 168.309 140.259C168.28 140.25 168.252 140.242 168.225 140.233C167.777 140.096 167.326 139.955 166.874 139.803C168.212 138.57 169.617 137.101 171.193 135.849C183.515 126.055 197.49 121.522 213.239 122.833C217.164 123.16 220.948 124.143 224.671 125.841L224.683 125.872Z" fill="white"/>
<path fill-rule="evenodd" clip-rule="evenodd" d="M81.7446 125.872C83.3536 129.637 85.4892 132.916 88.1708 135.805C98.9296 147.396 112.307 153.472 128.003 154.543C130.011 154.681 132.037 154.543 133.855 154.533C133.626 154.12 133.39 153.716 133.154 153.317C133.136 153.286 133.118 153.257 133.101 153.226C130.247 148.326 132.711 141.95 138.119 140.259C138.147 140.25 138.175 140.242 138.203 140.233C138.65 140.096 139.101 139.955 139.553 139.803C138.215 138.57 136.81 137.101 135.234 135.849C122.912 126.055 108.938 121.522 93.1884 122.833C89.2626 123.16 85.4784 124.143 81.7567 125.841L81.7446 125.872Z" fill="white"/>
<path fill-rule="evenodd" clip-rule="evenodd" d="M107.202 212.753C111.259 212.238 114.994 211.082 118.505 209.293C132.59 202.115 142.096 190.902 147.433 176.084C148.116 174.188 148.54 172.2 149.03 170.446C148.571 170.554 148.118 170.67 147.67 170.788C147.636 170.796 147.602 170.805 147.568 170.814C142.079 172.217 136.631 168.094 136.492 162.423C136.492 162.394 136.491 162.365 136.491 162.335C136.482 161.867 136.47 161.393 136.448 160.917C134.897 161.867 133.101 162.817 131.465 163.99C118.677 173.166 110.489 185.377 107.425 200.901C106.661 204.771 106.566 208.684 107.176 212.733L107.202 212.753Z" fill="white"/>
<path fill-rule="evenodd" clip-rule="evenodd" d="M197.409 212.753C193.352 212.238 189.617 211.082 186.106 209.293C172.021 202.115 162.516 190.902 157.178 176.084C156.495 174.188 156.071 172.2 155.581 170.446C156.041 170.554 156.493 170.67 156.942 170.788C156.976 170.796 157.009 170.805 157.043 170.814C162.532 172.217 167.98 168.094 168.119 162.423C168.12 162.394 168.12 162.365 168.121 162.335C168.13 161.867 168.141 161.393 168.163 160.917C169.715 161.867 171.511 162.817 173.146 163.99C185.934 173.166 194.122 185.377 197.186 200.901C197.95 204.771 198.044 208.684 197.436 212.733L197.409 212.753Z" fill="white"/>
</svg>
