<svg width="300" height="300" viewBox="0 0 300 300" fill="none" xmlns="http://www.w3.org/2000/svg">
<rect width="300" height="300" fill="#F8E71C"/>
<path fill-rule="evenodd" clip-rule="evenodd" d="M200.758 130.982H100.675C98.6847 130.982 97.0718 132.59 97.0718 134.575C97.0718 136.56 98.6847 138.168 100.675 138.168H107.275L119.372 216.098H181.229L194.132 138.168H200.758C202.749 138.168 204.361 136.56 204.361 134.575C204.361 132.59 202.749 130.982 200.758 130.982Z" fill="white"/>
<path fill-rule="evenodd" clip-rule="evenodd" d="M163.586 70.938C163.447 68.9325 162.842 67.0655 161.748 65.3746C158.662 60.6013 155.562 55.8376 152.467 51.0703C152.11 50.5217 151.752 49.9743 151.374 49.395C150.877 50.1548 150.405 50.8755 149.934 51.5973C147.333 55.5844 144.723 59.5664 142.136 63.5631C141.474 64.586 140.813 65.6217 140.281 66.7141C139.136 69.0646 138.887 71.5605 139.365 74.1186C139.841 76.6615 140.983 78.8815 142.853 80.6798C145.625 83.3453 148.958 84.4481 152.78 84.0073C155.617 83.6803 158.079 82.5037 160.09 80.4826C162.712 77.8466 163.842 74.6332 163.586 70.938Z" stroke="white" stroke-width="2.6302"/>
</svg>
