<svg width="25" height="15" viewBox="0 0 25 15" fill="none" xmlns="http://www.w3.org/2000/svg">
<g id="btn/back/mobile">
<path id="arrow" fill-rule="evenodd" clip-rule="evenodd" d="M20.1134 5.22922H2.18766L6.3264 1.0912C6.57627 0.841654 6.57627 0.436903 6.3264 0.187354C6.07705 -0.0624513 5.67195 -0.0624513 5.42234 0.187354L0.187462 5.42099C0.0675171 5.5409 0 5.70326 0 5.87304C0 6.04256 0.0675171 6.20492 0.187462 6.32484L5.4382 11.5741C5.56274 11.6991 5.72668 11.7615 5.8901 11.7615C6.05378 11.7615 6.21746 11.6991 6.34226 11.5741C6.59187 11.3245 6.59187 10.92 6.34226 10.6702L2.17871 6.50765H20.1134C22.1029 6.50765 23.7213 8.12563 23.7213 10.1144C23.7213 12.1036 22.1029 13.7216 20.1134 13.7216H11.6232C11.27 13.7216 10.9838 14.0077 10.9838 14.3608C10.9838 14.7139 11.27 15 11.6232 15H20.1134C22.808 15 25 12.8085 25 10.1144C25 7.4207 22.808 5.22922 20.1134 5.22922Z" fill="#5B3427"/>
</g>
</svg>
