<svg width="60" height="58" viewBox="0 0 60 58" fill="none" xmlns="http://www.w3.org/2000/svg">
<g id="cup/l2oz/b">
<path id="Fill 1" fill-rule="evenodd" clip-rule="evenodd" d="M13.1414 21.8983C13.5486 26.8279 15.1371 34.2045 15.1371 34.2045C15.1371 34.2045 17.6478 55.2185 17.6478 55.7008C17.6478 56.1864 17.6747 58 19.031 58H26.2399H29.528H36.7571C38.0932 58 38.1133 56.1864 38.1133 55.7008C38.1133 55.2185 40.6307 34.2045 40.6307 34.2045C40.6307 34.2045 42.226 26.8279 42.6197 21.8983C42.7914 19.6667 42.7846 15.5346 42.7207 11.5505C54.8398 11.5505 52.5143 24.8084 45.0934 35.2302C44.2655 36.3975 45.6453 37.941 46.5574 37.0857C57.162 27.0047 58.0943 6.48911 47.5435 6.48911C45.8742 6.48911 42.6029 6.40228 42.6029 6.40228C42.6029 6.40228 42.4885 1.84898 42.4885 1.44381C42.4885 0.241171 41.9601 0 40.8596 0H27.9967H27.7779H14.9016C13.8044 0 13.2928 0.241171 13.2928 1.44381C13.2928 2.65288 12.751 16.9624 13.1414 21.8983Z" fill="#5B3427"/>
</g>
</svg>
