<svg width="42" height="58" viewBox="0 0 42 58" fill="none" xmlns="http://www.w3.org/2000/svg">
<path fill-rule="evenodd" clip-rule="evenodd" d="M0.141398 21.8983C0.548622 26.8279 2.13713 34.2045 2.13713 34.2045C2.13713 34.2045 4.64779 55.2185 4.64779 55.7008C4.64779 56.1864 4.67472 58 6.03101 58H13.2399H16.528H23.7571C25.0932 58 25.1133 56.1864 25.1133 55.7008C25.1133 55.2185 27.6307 34.2045 27.6307 34.2045C27.6307 34.2045 29.226 26.8279 29.6197 21.8983C29.7914 19.6667 29.7846 15.5346 29.7207 11.5505C41.8398 11.5505 39.5143 24.8084 32.0934 35.2302C31.2655 36.3975 32.6453 37.941 33.5574 37.0857C44.162 27.0047 45.0943 6.48911 34.5435 6.48911C32.8742 6.48911 29.6029 6.40228 29.6029 6.40228C29.6029 6.40228 29.4885 1.84898 29.4885 1.44381C29.4885 0.241171 28.9601 0 27.8596 0H14.9967H14.7779H1.90155C0.8044 0 0.292845 0.241171 0.292845 1.44381C0.292845 2.65288 -0.248999 16.9624 0.141398 21.8983Z" fill="white"/>
</svg>
