<svg width="168" height="168" viewBox="0 0 168 168" fill="none" xmlns="http://www.w3.org/2000/svg">
<g id="btn/brew/default">
<rect id="btn_brew_bg" x="4" y="4" width="160" height="160" rx="80" stroke="#5B3427" stroke-width="8"/>
<path id="Fill 4" fill-rule="evenodd" clip-rule="evenodd" d="M129.897 39.2048H103.824L77.3746 84.4647L103.849 129.722H129.923L102.651 84.4647L129.897 39.2048ZM59.0307 102.976C51.24 102.976 44.9231 109.353 44.9231 117.219C44.9231 125.081 51.24 131.462 59.0307 131.462C66.8223 131.462 73.1392 125.081 73.1392 117.219C73.1392 109.353 66.8223 102.976 59.0307 102.976ZM59.0307 37.4615C51.24 37.4615 44.9231 43.8407 44.9231 51.7008C44.9231 59.5707 51.24 65.9463 59.0307 65.9463C66.8223 65.9463 73.1392 59.5707 73.1392 51.7008C73.1392 43.8407 66.8223 37.4615 59.0307 37.4615ZM59.0307 70.2192C51.24 70.2192 44.9231 76.5974 44.9231 84.4647C44.9231 92.3275 51.24 98.7048 59.0307 98.7048C66.8223 98.7048 73.1392 92.3275 73.1392 84.4647C73.1392 76.5974 66.8223 70.2192 59.0307 70.2192Z" fill="#5B3427"/>
</g>
</svg>
