<svg width="60" height="58" viewBox="0 0 60 58" fill="none" xmlns="http://www.w3.org/2000/svg">
<g id="cup/10oz/b">
<path id="Fill 1" fill-rule="evenodd" clip-rule="evenodd" d="M55.2393 38.0342C55.2393 40.342 53.3458 42.2179 51.021 42.2179H47.0925V21.6818H51.021C53.3458 21.6818 55.2393 23.5709 55.2393 25.8787V38.0342ZM51.0176 16.9409H47.0891V14.3826C47.0891 12.51 45.573 11 43.6929 11H29.896H26.1797H12.4029C10.5162 11 9 12.51 9 14.3826V49.5205C9 50.6843 9.59972 51.7327 10.533 52.3261C11.0215 52.7349 11.6415 53.0976 12.376 53.4141C12.5781 53.9284 12.8611 55.4153 13.4406 55.8999C15.9339 57.2022 20.9001 57.8747 26.1797 57.9802V58C26.2841 58 29.5422 58 29.6197 57.9802C29.7174 58 29.805 58 29.896 58V57.9802C35.1823 57.8747 40.1384 57.2022 42.6485 55.8999C43.2212 55.4153 43.5144 53.9284 43.7064 53.4141C44.4476 53.0976 45.0608 52.7349 45.5527 52.3261C46.4692 51.7327 47.0891 50.6843 47.0891 49.5205V46.9522H51.0176C55.9873 46.9522 60 42.9367 60 38.021V25.8688C60 20.94 55.9873 16.9409 51.0176 16.9409Z" fill="#5B3427"/>
</g>
</svg>
