<svg width="300" height="300" viewBox="0 0 300 300" fill="none" xmlns="http://www.w3.org/2000/svg">
<path fill-rule="evenodd" clip-rule="evenodd" d="M163.515 98.687C164.329 106.973 166.007 114.892 169.067 122.492C170.65 126.422 172.35 130.309 173.836 134.274C175.775 139.45 176.5 144.864 176.509 150.361C176.545 171.887 176.549 193.413 176.557 214.939C176.559 219.452 173.358 222.601 168.806 222.601H130.618C126.065 222.601 122.865 219.452 122.867 214.939C122.875 193.413 122.879 171.887 122.915 150.361C122.924 144.864 123.649 139.45 125.589 134.274C127.074 130.309 128.774 126.422 130.357 122.492C133.417 114.892 135.094 106.973 135.909 98.687H163.515Z" stroke="#5B3427" stroke-width="2.47397"/>
<path d="M122.786 150.744C131.761 150.744 131.761 152.723 140.735 152.723C149.711 152.723 149.711 150.744 158.686 150.744C167.662 150.744 167.662 152.723 176.638 152.723" stroke="#5B3427" stroke-width="2.47397"/>
<path fill-rule="evenodd" clip-rule="evenodd" d="M149.682 76.6364C154.263 76.6364 158.843 76.6349 163.424 76.6374C164.898 76.6379 165.517 77.2455 165.521 78.719C165.529 81.7902 165.529 84.8608 165.521 87.9315C165.516 89.454 164.137 90.8008 162.607 90.8008C153.918 90.8013 145.23 90.8013 136.541 90.8008C135.192 90.8008 133.76 89.4347 133.754 88.0933C133.738 84.9351 133.74 81.7763 133.753 78.6175C133.758 77.2465 134.386 76.6394 135.763 76.6379C140.403 76.6339 145.042 76.6364 149.682 76.6364Z" fill="#5B3427"/>
<path fill-rule="evenodd" clip-rule="evenodd" d="M158.686 152.055C154.336 152.055 152.221 152.522 149.983 153.015C147.71 153.517 145.361 154.035 140.735 154.035C136.11 154.035 133.761 153.517 131.489 153.015C129.501 152.577 127.607 152.161 124.162 152.073C124.133 170.488 124.126 189.174 124.119 207.264L124.116 215.014C124.116 216.891 124.738 218.498 125.917 219.662C127.095 220.824 128.72 221.439 130.618 221.439H168.805C170.703 221.439 172.329 220.824 173.507 219.662C174.685 218.498 175.308 216.891 175.307 215.014L175.304 206.942C175.298 189.593 175.291 171.694 175.264 154.017C171.527 153.925 169.425 153.465 167.39 153.015C165.151 152.522 163.036 152.055 158.686 152.055Z" fill="#5B3427"/>
</svg>
