<svg width="60" height="58" viewBox="0 0 60 58" fill="none" xmlns="http://www.w3.org/2000/svg">
<rect width="60" height="58" fill="#F8E71C"/>
<path fill-rule="evenodd" clip-rule="evenodd" d="M46.0614 43.6349C47.2411 41.9286 48.9873 39.3496 48.9873 39.3496C50.4502 37.2872 52.3594 36.5427 53.8883 37.5116C55.4055 38.4769 54.7691 40.5643 53.9581 41.5617C53.1393 42.5591 51.8045 43.2359 49.2899 43.9341C46.787 44.6252 44.8701 45.334 46.0614 43.6349ZM58.4051 50.5098H38.8826C39.3444 50.1821 39.973 49.6478 40.6792 48.9531C42.0219 48.8142 44.1522 47.7598 46.6512 46.9441C49.8642 45.8968 53.896 44.8638 55.7625 42.235C57.6329 39.599 56.8451 36.4857 54.6488 35.2995C52.9026 34.352 50.1242 35.011 49.0222 35.3387C49.189 34.5693 49.2822 33.7927 49.2899 33.034C49.321 31.4916 48.3935 31 47.5554 31H10.1906C9.36022 31 8.42504 31.4916 8.45996 33.034C8.54921 39.9623 16.2208 48.6717 18.8479 50.5098H1.60323C-0.243861 50.5098 -0.806524 52.6863 1.60323 52.6863C4.00134 52.6863 5.07622 54.3961 9.62409 54.9767C14.172 55.5466 15.2507 55.9599 16.0734 57H43.931C44.7576 55.9599 45.8325 55.5466 50.3803 54.9767C54.9282 54.3961 56.0031 52.6863 58.4051 52.6863C60.811 52.6863 60.2328 50.5098 58.4051 50.5098Z" fill="white"/>
</svg>
