<svg width="300" height="300" viewBox="0 0 300 300" fill="none" xmlns="http://www.w3.org/2000/svg">
<path fill-rule="evenodd" clip-rule="evenodd" d="M181.465 184.387C182.996 184.77 184.886 184.702 186.7 184.174C191.262 182.847 194.686 179.969 197.283 176.051C199.723 172.371 201.015 168.343 200.382 163.859C200.038 161.425 199.024 159.316 196.995 157.848C194.394 155.966 191.524 155.974 188.576 156.771C188.437 156.808 188.294 157.062 188.264 157.234C188.044 158.505 187.862 159.783 187.651 161.055C186.594 167.449 185.098 173.733 183.035 179.875C182.533 181.371 181.999 182.855 181.465 184.387ZM181.357 157.66C181.405 157.415 181.464 157.23 181.477 157.043C181.751 153.221 181.978 149.396 182.306 145.579C182.465 143.741 181.161 142.9 179.669 142.901C158.725 142.919 137.781 142.913 116.836 142.915C115.055 142.915 114.146 143.782 114.255 145.569C114.485 149.329 114.819 153.083 115.061 156.842C115.107 157.555 115.362 157.675 116.008 157.674C137.519 157.656 159.03 157.66 180.541 157.66H181.357ZM189.407 145.85C190.558 145.85 191.664 145.801 192.765 145.858C202.129 146.342 209.176 152.778 210.574 162.163C211.59 168.981 209.977 175.25 206.407 181.026C202.741 186.958 197.746 191.342 191.163 193.702C186.659 195.316 182.076 195.582 177.459 194.136C177.342 194.099 177.221 194.074 177.066 194.034C176.811 194.489 176.563 194.928 176.318 195.368C174.45 198.716 172.329 201.887 169.883 204.836C169.181 205.682 168.338 206.064 167.255 206.063C154.726 206.054 142.199 206.054 129.671 206.063C128.59 206.064 127.745 205.69 127.04 204.843C122.637 199.56 119.335 193.615 116.661 187.295C113.343 179.458 111.099 171.3 109.585 162.925C108.412 156.437 107.687 149.9 107.418 143.311C107.359 141.872 107.308 140.432 107.297 138.993C107.285 137.355 108.371 136.252 109.996 136.192C110.164 136.186 110.332 136.191 110.499 136.191H186.423C188.715 136.191 189.742 137.297 189.637 139.636C189.553 141.497 189.482 143.359 189.408 145.221C189.399 145.448 189.407 145.676 189.407 145.85Z" fill="#5B3427"/>
<path fill-rule="evenodd" clip-rule="evenodd" d="M152.087 93.3242C151.771 93.9262 151.573 94.6454 151.12 95.1113C148.559 97.7415 148.33 102.195 151.365 105.407C155.946 110.256 155.852 117.559 151.34 122.363C150.432 123.329 149.154 123.578 148.089 122.997C147.069 122.439 146.464 121.161 146.82 120.088C146.99 119.578 147.315 119.092 147.665 118.676C150.251 115.597 150.247 111.74 147.449 108.823C142.679 103.851 142.875 96.1712 147.34 91.5684C148.196 90.6854 149.28 90.4284 150.367 90.8667C151.251 91.2234 151.899 92.2165 152.087 93.3242Z" fill="#5B3427"/>
<path fill-rule="evenodd" clip-rule="evenodd" d="M138.226 115.795C138.161 118.315 137.339 120.539 135.592 122.391C134.588 123.456 133.035 123.605 131.976 122.737C130.841 121.809 130.676 120.29 131.623 119.056C132.307 118.166 132.948 117.29 133.02 116.098C133.108 114.629 132.449 113.521 131.521 112.483C128.16 108.72 128.148 103.369 131.469 99.6059C132.549 98.3817 134.151 98.1776 135.265 99.1226C136.422 100.105 136.499 101.629 135.457 102.954C133.65 105.252 133.697 107.109 135.673 109.309C137.329 111.153 138.147 113.312 138.226 115.795Z" fill="#5B3427"/>
<path fill-rule="evenodd" clip-rule="evenodd" d="M165.102 123.48C163.978 123.287 163.237 122.797 162.752 121.9C162.277 121.021 162.335 120.156 162.868 119.32C162.978 119.149 163.107 118.988 163.233 118.828C164.966 116.61 164.929 114.668 163.053 112.605C161.629 111.041 160.741 109.235 160.512 107.128C160.18 104.084 161.102 101.452 163.228 99.2736C164.168 98.3101 165.739 98.2842 166.723 99.1364C167.773 100.046 167.885 101.511 167.114 102.708C166.555 103.575 165.944 104.487 165.705 105.465C165.344 106.939 166.075 108.17 167.058 109.274C169.711 112.254 170.376 115.675 168.92 119.393C168.474 120.532 167.662 121.563 166.862 122.508C166.455 122.987 165.7 123.165 165.102 123.48Z" fill="#5B3427"/>
<path fill-rule="evenodd" clip-rule="evenodd" d="M163.79 57.0335C163.624 54.602 162.899 52.3395 161.591 50.2896C157.897 44.5033 154.186 38.7292 150.481 32.9504C150.054 32.2853 149.625 31.6217 149.174 30.9201C148.579 31.8401 148.014 32.714 147.45 33.589C144.337 38.4224 141.212 43.2489 138.116 48.0939C137.324 49.3341 136.533 50.589 135.896 51.9134C134.525 54.7626 134.228 57.7877 134.8 60.8886C135.368 63.9714 136.736 66.6621 138.975 68.8424C142.292 72.0732 146.282 73.4098 150.856 72.8761C154.252 72.4791 157.198 71.0535 159.605 68.6034C162.744 65.4082 164.096 61.5129 163.79 57.0335Z" stroke="#5B3427" stroke-width="3.15827"/>
</svg>
