<svg width="300" height="300" viewBox="0 0 300 300" fill="none" xmlns="http://www.w3.org/2000/svg">
<rect width="300" height="300" fill="#F8E71C"/>
<path fill-rule="evenodd" clip-rule="evenodd" d="M181.453 184.374C182.984 184.758 184.874 184.69 186.688 184.162C191.249 182.834 194.673 179.957 197.27 176.04C199.709 172.359 201.002 168.332 200.368 163.848C200.025 161.414 199.011 159.306 196.982 157.837C194.381 155.955 191.511 155.963 188.564 156.76C188.425 156.798 188.281 157.051 188.251 157.223C188.031 158.495 187.849 159.772 187.639 161.044C186.582 167.438 185.086 173.722 183.023 179.863C182.521 181.359 181.987 182.842 181.453 184.374ZM181.345 157.649C181.393 157.404 181.452 157.22 181.465 157.032C181.739 153.211 181.966 149.386 182.294 145.569C182.453 143.732 181.149 142.89 179.657 142.891C158.714 142.91 137.772 142.903 116.829 142.905C115.047 142.905 114.138 143.773 114.247 145.56C114.478 149.319 114.811 153.072 115.053 156.831C115.099 157.544 115.354 157.664 116.001 157.664C137.51 157.646 159.02 157.649 180.529 157.649H181.345ZM189.394 145.84C190.546 145.84 191.652 145.791 192.752 145.848C202.115 146.332 209.162 152.768 210.56 162.152C211.576 168.97 209.963 175.238 206.394 181.014C202.728 186.946 197.733 191.329 191.151 193.689C186.647 195.303 182.064 195.569 177.447 194.123C177.33 194.086 177.21 194.061 177.054 194.021C176.799 194.476 176.552 194.915 176.306 195.355C174.439 198.702 172.318 201.873 169.872 204.822C169.17 205.668 168.327 206.05 167.244 206.049C154.716 206.04 142.189 206.04 129.662 206.049C128.581 206.05 127.737 205.676 127.031 204.83C122.629 199.547 119.328 193.602 116.653 187.283C113.335 179.446 111.091 171.288 109.578 162.914C108.405 156.427 107.68 149.89 107.411 143.301C107.352 141.863 107.301 140.423 107.29 138.983C107.278 137.345 108.364 136.243 109.989 136.183C110.156 136.177 110.325 136.182 110.492 136.182H186.411C188.702 136.182 189.729 137.288 189.624 139.626C189.54 141.487 189.469 143.349 189.396 145.211C189.386 145.438 189.394 145.666 189.394 145.84Z" fill="white"/>
<path fill-rule="evenodd" clip-rule="evenodd" d="M152.077 93.3179C151.761 93.9199 151.563 94.6391 151.11 95.1049C148.549 97.735 148.32 102.189 151.354 105.4C155.936 110.248 155.842 117.552 151.33 122.354C150.422 123.32 149.144 123.57 148.079 122.989C147.059 122.431 146.454 121.153 146.81 120.08C146.98 119.57 147.305 119.084 147.655 118.668C150.24 115.589 150.237 111.732 147.439 108.816C142.669 103.844 142.865 96.1648 147.33 91.5622C148.186 90.6794 149.27 90.4223 150.356 90.8606C151.24 91.2172 151.889 92.2104 152.077 93.3179Z" fill="white"/>
<path fill-rule="evenodd" clip-rule="evenodd" d="M138.217 115.787C138.152 118.307 137.329 120.531 135.583 122.383C134.579 123.448 133.026 123.597 131.967 122.729C130.832 121.801 130.667 120.282 131.615 119.048C132.298 118.158 132.939 117.282 133.011 116.09C133.1 114.621 132.44 113.513 131.512 112.475C128.152 108.713 128.14 103.362 131.46 99.5993C132.54 98.3751 134.143 98.1711 135.256 99.116C136.413 100.098 136.49 101.623 135.448 102.947C133.642 105.245 133.688 107.102 135.664 109.302C137.32 111.146 138.138 113.305 138.217 115.787Z" fill="white"/>
<path fill-rule="evenodd" clip-rule="evenodd" d="M165.091 123.471C163.967 123.279 163.226 122.789 162.741 121.892C162.267 121.013 162.324 120.148 162.857 119.312C162.968 119.141 163.096 118.98 163.222 118.82C164.955 116.602 164.918 114.661 163.042 112.598C161.619 111.033 160.73 109.227 160.501 107.121C160.169 104.077 161.091 101.446 163.217 99.267C164.157 98.3036 165.728 98.2776 166.712 99.1297C167.762 100.039 167.874 101.504 167.102 102.701C166.544 103.568 165.933 104.48 165.694 105.458C165.333 106.932 166.064 108.163 167.047 109.266C169.7 112.246 170.364 115.668 168.908 119.385C168.462 120.524 167.651 121.555 166.851 122.5C166.444 122.979 165.688 123.157 165.091 123.471Z" fill="white"/>
<path fill-rule="evenodd" clip-rule="evenodd" d="M163.779 57.0297C163.613 54.5984 162.889 52.336 161.58 50.2862C157.887 44.5004 154.176 38.7267 150.471 32.9482C150.044 32.2831 149.616 31.6196 149.164 30.918C148.569 31.838 148.004 32.7118 147.44 33.5868C144.327 38.4198 141.203 43.246 138.107 48.0907C137.315 49.3308 136.524 50.5857 135.887 51.91C134.516 54.7589 134.219 57.7838 134.791 60.8845C135.359 63.9672 136.727 66.6577 138.966 68.8378C142.282 72.0684 146.273 73.4049 150.847 72.8712C154.242 72.4743 157.188 71.0488 159.595 68.5988C162.733 65.4038 164.085 61.5088 163.779 57.0297Z" stroke="white" stroke-width="3.15806"/>
</svg>
