<svg width="60" height="58" viewBox="0 0 60 58" fill="none" xmlns="http://www.w3.org/2000/svg">
<g id="cup/4oz/b">
<path id="Fill 1" fill-rule="evenodd" clip-rule="evenodd" d="M47.0641 42.4841C46.4986 43.7538 45.5792 44.6037 43.8758 45.5132C42.162 46.3946 40.8471 47.2831 41.6659 45.1214C42.4846 42.9493 43.6642 39.6648 43.6642 39.6648C44.6703 37.031 45.9782 36.0761 47.019 37.3073C48.0459 38.5525 47.6088 41.2074 47.0641 42.4841ZM43.685 34.544C43.796 33.5507 43.8723 32.5748 43.8758 31.6094C43.8862 29.6296 43.2548 29 42.6824 29H17.1832C16.6315 29 15.9897 29.6296 16.0001 31.6094C16.073 41.008 22.0193 53.016 23.4105 54.2332C24.8017 55.4295 25.0966 57 25.0966 57H28.8608H31.0152H34.7759C34.7759 57 35.0881 55.4295 36.4654 54.2332C36.7881 53.9394 37.3327 53.1279 37.9988 51.9107C38.9043 51.7428 40.3684 50.3926 42.0753 49.3468C44.2609 48.0036 47.0155 46.7094 48.2853 43.341C49.5654 39.9761 49.0138 36.0201 47.5186 34.4986C46.3286 33.2813 44.4309 34.1278 43.685 34.544Z" fill="#5B3427"/>
</g>
</svg>
